<svg xmlns="http://www.w3.org/2000/svg" viewBox="0 0 64 64">
  <rect width="64" height="64" rx="18" fill="#f8eddc"/>
  <path d="M14 21c0-5 4-9 9-9 4 0 7 2 9 5l-7 9c-2 3-5 5-8 5-2 0-3-1-3-3z" fill="#c78d5a"/>
  <path d="M50 21c0-5-4-9-9-9-4 0-7 2-9 5l7 9c2 3 5 5 8 5 2 0 3-1 3-3z" fill="#c78d5a"/>
  <circle cx="32" cy="33" r="20" fill="#f2c08e"/>
  <ellipse cx="25" cy="31" rx="4" ry="5" fill="#2f241d"/>
  <ellipse cx="39" cy="31" rx="4" ry="5" fill="#2f241d"/>
  <circle cx="26" cy="30" r="1.2" fill="#fff"/>
  <circle cx="40" cy="30" r="1.2" fill="#fff"/>
  <ellipse cx="32" cy="38" rx="4" ry="3.2" fill="#2f241d"/>
  <path d="M32 40c-2 0-3 1-4 2 2 2 6 2 8 0-1-1-2-2-4-2z" fill="#7b3f2a"/>
  <path d="M21 44c3 4 8 6 11 6s8-2 11-6" fill="none" stroke="#7b3f2a" stroke-width="3" stroke-linecap="round"/>
  <path d="M23 23c2 1 3 3 4 5" fill="none" stroke="#a96c43" stroke-width="2.2" stroke-linecap="round"/>
  <path d="M41 23c-2 1-3 3-4 5" fill="none" stroke="#a96c43" stroke-width="2.2" stroke-linecap="round"/>
</svg>
